{
  "accessors": [
    {
      "bufferView": 1,
      "componentType": 5126,
      "count": 1984,
      "max": [
        1,
        1,
        1
      ],
      "min": [
        -1,
        -1,
        -1
      ],
      "type": "VEC3"
    },
    {
      "bufferView": 1,
      "byteOffset": 23808,
      "componentType": 5126,
      "count": 1984,
      "max": [
        0.99043756723403931,
        0.99044722318649292,
        0.99514204263687134
      ],
      "min": [
        -0.99043756723403931,
        -0.99043756723403931,
        -0.99514204263687134
      ],
      "type": "VEC3"
    },
    {
      "bufferView": 0,
      "componentType": 5125,
      "count": 2880,
      "max": [
        1983
      ],
      "min": [
        0
      ],
      "type": "SCALAR"
    }
  ],
  "asset": {
    "extras": {
      "author": "matejv (https://sketchfab.com/matejv)",
      "license": "CC-BY-4.0 (http://creativecommons.org/licenses/by/4.0/)",
      "source": "https://sketchfab.com/3d-models/sphere-cb3372617eed4014b4b1dc68e35b23bf",
      "title": "Sphere"
    },
    "generator": "Sketchfab-7.40.0",
    "version": "2.0"
  },
  "bufferViews": [
    {
      "buffer": 0,
      "byteLength": 11520,
      "byteOffset": 0,
      "name": "floatBufferViews",
      "target": 34963
    },
    {
      "buffer": 0,
      "byteLength": 47616,
      "byteOffset": 11520,
      "byteStride": 12,
      "name": "floatBufferViews",
      "target": 34962
    }
  ],
  "buffers": [
    {
      "byteLength": 59136,
      "uri": "scene.bin"
    }
  ],
  "materials": [
    {
		"doubleSided" : true,
		"emissiveFactor" : [
			0,
			0,
			0
		],
		"name" : "Green",
		"pbrMetallicRoughness" : {
			"baseColorFactor" : [
				0.0010767599154263735,
				0.6000000715255737,
				0,
				0.8
			],
			"metallicFactor" : 0,
			"roughnessFactor" : 0.5
		}
	}
  ],
  "meshes": [
    {
      "primitives": [
        {
          "attributes": {
            "NORMAL": 1,
            "POSITION": 0
          },
          "indices": 2,
          "material": 0,
          "mode": 4
        }
      ]
    }
  ],
  "nodes": [
    {
      "children": [
        1
      ],
      "name": "RootNode (gltf orientation matrix)",
      "rotation": [
        -0.70710678118654746,
        -0,
        -0,
        0.70710678118654757
      ]
    },
    {
      "children": [
        2
      ],
      "name": "RootNode (model correction matrix)"
    },
    {
      "children": [
        3
      ],
      "name": "04c7c26ae10b443caf8d28ce59cc75a7.obj.cleaner.materialmerger.gles"
    },
    {
      "mesh": 0,
      "name": ""
    }
  ],
  "scene": 0,
  "scenes": [
    {
      "name": "OSG_Scene",
      "nodes": [
        0
      ]
    }
  ]
}

